<mxfile modified="2023-05-22T10:49:38.753Z" host="Electron" agent="Mozilla/5.0 (Macintosh; Intel Mac OS X 10_15_7) AppleWebKit/537.36 (KHTML, like Gecko) draw.io/21.2.8 Chrome/112.0.5615.165 Electron/24.2.0 Safari/537.36" etag="9RlAC73DpGq3VqL51W2c" version="21.2.8" type="device" pages="2">
  <diagram id="WI9T0HZ2pTsCkuznbFz-" name="Page-1">
    <mxGraphModel dx="1306" dy="1691" grid="1" gridSize="10" guides="1" tooltips="1" connect="1" arrows="1" fold="1" page="1" pageScale="1" pageWidth="1169" pageHeight="827" background="#F1FAEE" math="0" shadow="0">
      <root>
        <mxCell id="0" />
        <mxCell id="1" parent="0" />
        <mxCell id="6BwSZOXE0QRsBlMUQ49c-6" value="" style="rounded=0;whiteSpace=wrap;html=1;labelBackgroundColor=#F1FAEE;dashed=1;dashPattern=8 8;glass=0;gradientDirection=radial;fillColor=#A8DADC;strokeColor=#457B9D;fontColor=#1D3557;" parent="1" vertex="1">
          <mxGeometry x="130" y="-70" width="940" height="1020" as="geometry" />
        </mxCell>
        <mxCell id="6BwSZOXE0QRsBlMUQ49c-15" style="edgeStyle=orthogonalEdgeStyle;rounded=0;orthogonalLoop=1;jettySize=auto;html=1;entryX=0;entryY=0.5;entryDx=0;entryDy=0;labelBackgroundColor=#F1FAEE;strokeColor=#457B9D;fontColor=#1D3557;" parent="1" source="6BwSZOXE0QRsBlMUQ49c-9" target="6BwSZOXE0QRsBlMUQ49c-13" edge="1">
          <mxGeometry relative="1" as="geometry">
            <Array as="points">
              <mxPoint x="299" y="150" />
            </Array>
          </mxGeometry>
        </mxCell>
        <mxCell id="6BwSZOXE0QRsBlMUQ49c-16" style="edgeStyle=orthogonalEdgeStyle;rounded=0;orthogonalLoop=1;jettySize=auto;html=1;labelBackgroundColor=#F1FAEE;strokeColor=#457B9D;fontColor=#1D3557;" parent="1" source="6BwSZOXE0QRsBlMUQ49c-9" target="6BwSZOXE0QRsBlMUQ49c-14" edge="1">
          <mxGeometry relative="1" as="geometry">
            <Array as="points">
              <mxPoint x="430" y="460" />
              <mxPoint x="430" y="460" />
            </Array>
          </mxGeometry>
        </mxCell>
        <mxCell id="6BwSZOXE0QRsBlMUQ49c-9" value="" style="whiteSpace=wrap;html=1;fillColor=#A8DADC;fontColor=#1D3557;strokeColor=#457B9D;" parent="1" vertex="1">
          <mxGeometry x="204" y="330" width="190" height="260" as="geometry" />
        </mxCell>
        <mxCell id="6BwSZOXE0QRsBlMUQ49c-2" value="" style="image;aspect=fixed;html=1;points=[];align=center;fontSize=12;image=img/lib/azure2/networking/Public_IP_Addresses.svg;labelBackgroundColor=#F1FAEE;fillColor=#A8DADC;strokeColor=#457B9D;fontColor=#1D3557;" parent="1" vertex="1">
          <mxGeometry x="200" y="414.92" width="65" height="52" as="geometry" />
        </mxCell>
        <mxCell id="6BwSZOXE0QRsBlMUQ49c-4" value="" style="image;aspect=fixed;html=1;points=[];align=center;fontSize=12;image=img/lib/azure2/networking/Web_Application_Firewall_Policies_WAF.svg;labelBackgroundColor=#F1FAEE;fillColor=#A8DADC;strokeColor=#457B9D;fontColor=#1D3557;" parent="1" vertex="1">
          <mxGeometry x="290" y="395.92" width="68" height="68" as="geometry" />
        </mxCell>
        <mxCell id="6BwSZOXE0QRsBlMUQ49c-7" value="Virtual Network&amp;nbsp;&lt;br&gt;10.0.0.0/16" style="aspect=fixed;html=1;perimeter=none;align=center;shadow=0;dashed=1;image;fontSize=12;image=img/lib/mscae/Virtual_Network.svg;labelBackgroundColor=none;fillColor=#A8DADC;strokeColor=#457B9D;fontColor=#1D3557;" parent="1" vertex="1">
          <mxGeometry x="959.9999999999995" y="-50" width="50" height="28.499999999999996" as="geometry" />
        </mxCell>
        <mxCell id="6BwSZOXE0QRsBlMUQ49c-8" value="" style="image;aspect=fixed;html=1;points=[];align=center;fontSize=12;image=img/lib/azure2/networking/Application_Gateways.svg;labelBackgroundColor=#F1FAEE;fillColor=#A8DADC;strokeColor=#457B9D;fontColor=#1D3557;" parent="1" vertex="1">
          <mxGeometry x="217" y="405.92" width="91" height="91" as="geometry" />
        </mxCell>
        <mxCell id="6BwSZOXE0QRsBlMUQ49c-11" style="edgeStyle=orthogonalEdgeStyle;rounded=0;orthogonalLoop=1;jettySize=auto;html=1;entryX=0.002;entryY=0.301;entryDx=0;entryDy=0;entryPerimeter=0;labelBackgroundColor=#F1FAEE;strokeColor=#457B9D;fontColor=#1D3557;" parent="1" source="6BwSZOXE0QRsBlMUQ49c-10" target="6BwSZOXE0QRsBlMUQ49c-8" edge="1">
          <mxGeometry relative="1" as="geometry" />
        </mxCell>
        <mxCell id="6BwSZOXE0QRsBlMUQ49c-10" value="" style="image;aspect=fixed;html=1;points=[];align=center;fontSize=12;image=img/lib/azure2/general/Browser.svg;labelBackgroundColor=#F1FAEE;fillColor=#A8DADC;strokeColor=#457B9D;fontColor=#1D3557;" parent="1" vertex="1">
          <mxGeometry x="30" y="405.92" width="70" height="56" as="geometry" />
        </mxCell>
        <mxCell id="6BwSZOXE0QRsBlMUQ49c-13" value="" style="whiteSpace=wrap;html=1;fillColor=#A8DADC;fontColor=#1D3557;strokeColor=#457B9D;" parent="1" vertex="1">
          <mxGeometry x="530" y="20" width="190" height="260" as="geometry" />
        </mxCell>
        <mxCell id="4" style="edgeStyle=orthogonalEdgeStyle;rounded=0;orthogonalLoop=1;jettySize=auto;html=1;exitX=1;exitY=0.5;exitDx=0;exitDy=0;labelBackgroundColor=#F1FAEE;strokeColor=#457B9D;fontColor=#1D3557;" parent="1" source="6BwSZOXE0QRsBlMUQ49c-14" target="2" edge="1">
          <mxGeometry relative="1" as="geometry" />
        </mxCell>
        <mxCell id="6BwSZOXE0QRsBlMUQ49c-14" value="" style="whiteSpace=wrap;html=1;fillColor=#A8DADC;fontColor=#1D3557;strokeColor=#457B9D;" parent="1" vertex="1">
          <mxGeometry x="530" y="330" width="190" height="260" as="geometry" />
        </mxCell>
        <mxCell id="6BwSZOXE0QRsBlMUQ49c-1" value="APIM" style="image;aspect=fixed;html=1;points=[];align=center;fontSize=12;image=img/lib/azure2/app_services/API_Management_Services.svg;labelBackgroundColor=#F1FAEE;fillColor=#A8DADC;strokeColor=#457B9D;fontColor=#1D3557;" parent="1" vertex="1">
          <mxGeometry x="585.0000000000001" y="423.08" width="80" height="73.84" as="geometry" />
        </mxCell>
        <mxCell id="6BwSZOXE0QRsBlMUQ49c-18" value="" style="image;aspect=fixed;html=1;points=[];align=center;fontSize=12;image=img/lib/azure2/networking/Network_Security_Groups.svg;labelBackgroundColor=#F1FAEE;fillColor=#A8DADC;strokeColor=#457B9D;fontColor=#1D3557;" parent="1" vertex="1">
          <mxGeometry x="700" y="250" width="36" height="43.71" as="geometry" />
        </mxCell>
        <mxCell id="6BwSZOXE0QRsBlMUQ49c-19" value="" style="image;aspect=fixed;html=1;points=[];align=center;fontSize=12;image=img/lib/azure2/networking/Network_Security_Groups.svg;labelBackgroundColor=#F1FAEE;fillColor=#A8DADC;strokeColor=#457B9D;fontColor=#1D3557;" parent="1" vertex="1">
          <mxGeometry x="700" y="570" width="36" height="43.71" as="geometry" />
        </mxCell>
        <mxCell id="6BwSZOXE0QRsBlMUQ49c-20" value="" style="image;aspect=fixed;html=1;points=[];align=center;fontSize=12;image=img/lib/azure2/networking/Network_Security_Groups.svg;labelBackgroundColor=#F1FAEE;fillColor=#A8DADC;strokeColor=#457B9D;fontColor=#1D3557;" parent="1" vertex="1">
          <mxGeometry x="358" y="414" width="36" height="43.71" as="geometry" />
        </mxCell>
        <mxCell id="6BwSZOXE0QRsBlMUQ49c-21" value="subnet-appgw&lt;br&gt;10.0.0.0/24" style="text;html=1;strokeColor=none;fillColor=none;align=center;verticalAlign=middle;whiteSpace=wrap;rounded=0;fontColor=#1D3557;" parent="1" vertex="1">
          <mxGeometry x="190" y="293.71000000000004" width="110" height="30" as="geometry" />
        </mxCell>
        <mxCell id="6BwSZOXE0QRsBlMUQ49c-22" value="subnet-apim&lt;br&gt;10.0.1.0/24" style="text;html=1;strokeColor=none;fillColor=none;align=center;verticalAlign=middle;whiteSpace=wrap;rounded=0;fontColor=#1D3557;" parent="1" vertex="1">
          <mxGeometry x="530" y="300" width="110" height="30" as="geometry" />
        </mxCell>
        <mxCell id="6BwSZOXE0QRsBlMUQ49c-23" value="subnet-appgw-wl&lt;br&gt;10.0.2.0/24" style="text;html=1;strokeColor=none;fillColor=none;align=center;verticalAlign=middle;whiteSpace=wrap;rounded=0;fontColor=#1D3557;" parent="1" vertex="1">
          <mxGeometry x="530" y="-10" width="150" height="30" as="geometry" />
        </mxCell>
        <mxCell id="2" value="" style="whiteSpace=wrap;html=1;fillColor=#A8DADC;fontColor=#1D3557;strokeColor=#457B9D;" parent="1" vertex="1">
          <mxGeometry x="850" y="330" width="190" height="260" as="geometry" />
        </mxCell>
        <mxCell id="3" value="subnet-apim-wl&lt;br&gt;10.0.3.0/24" style="text;html=1;strokeColor=none;fillColor=none;align=center;verticalAlign=middle;whiteSpace=wrap;rounded=0;fontColor=#1D3557;" parent="1" vertex="1">
          <mxGeometry x="850" y="300" width="150" height="30" as="geometry" />
        </mxCell>
        <mxCell id="xJgkoHYX4h2dyVskytGa-5" value="" style="image;aspect=fixed;html=1;points=[];align=center;fontSize=12;image=img/lib/azure2/networking/Network_Security_Groups.svg;labelBackgroundColor=#F1FAEE;fillColor=#A8DADC;strokeColor=#457B9D;fontColor=#1D3557;" parent="1" vertex="1">
          <mxGeometry x="1020" y="570" width="36" height="43.71" as="geometry" />
        </mxCell>
        <mxCell id="6" value="" style="whiteSpace=wrap;html=1;fillColor=#A8DADC;fontColor=#1D3557;strokeColor=#457B9D;" parent="1" vertex="1">
          <mxGeometry x="530" y="640" width="190" height="260" as="geometry" />
        </mxCell>
        <mxCell id="8" value="subnet-jumphost&lt;br&gt;10.0.4.0/24" style="text;html=1;strokeColor=none;fillColor=none;align=center;verticalAlign=middle;whiteSpace=wrap;rounded=0;fontColor=#1D3557;" parent="1" vertex="1">
          <mxGeometry x="530" y="610" width="150" height="30" as="geometry" />
        </mxCell>
        <mxCell id="10" value="" style="image;aspect=fixed;html=1;points=[];align=center;fontSize=12;image=img/lib/azure2/networking/Network_Security_Groups.svg;labelBackgroundColor=#F1FAEE;fillColor=#A8DADC;strokeColor=#457B9D;fontColor=#1D3557;" parent="1" vertex="1">
          <mxGeometry x="700" y="880" width="36" height="43.71" as="geometry" />
        </mxCell>
        <mxCell id="13" value="" style="aspect=fixed;html=1;points=[];align=center;image;fontSize=12;image=img/lib/azure2/compute/Virtual_Machine.svg;strokeColor=#457B9D;fontColor=#1D3557;fillColor=#A8DADC;" parent="1" vertex="1">
          <mxGeometry x="588.5" y="750" width="69" height="64" as="geometry" />
        </mxCell>
        <mxCell id="14" value="" style="aspect=fixed;html=1;points=[];align=center;image;fontSize=12;image=img/lib/azure2/compute/Virtual_Machine.svg;strokeColor=#457B9D;fontColor=#1D3557;fillColor=#A8DADC;" parent="1" vertex="1">
          <mxGeometry x="910.5" y="428" width="69" height="64" as="geometry" />
        </mxCell>
        <mxCell id="15" value="" style="aspect=fixed;html=1;points=[];align=center;image;fontSize=12;image=img/lib/azure2/compute/Virtual_Machine.svg;strokeColor=#457B9D;fontColor=#1D3557;fillColor=#A8DADC;" parent="1" vertex="1">
          <mxGeometry x="584" y="118" width="69" height="64" as="geometry" />
        </mxCell>
        <mxCell id="17" value="ssh" style="edgeStyle=orthogonalEdgeStyle;rounded=0;orthogonalLoop=1;jettySize=auto;html=1;strokeColor=#457B9D;fontColor=#1D3557;fillColor=#A8DADC;labelBackgroundColor=#FFFFFF;" parent="1" source="16" target="12" edge="1">
          <mxGeometry relative="1" as="geometry" />
        </mxCell>
        <mxCell id="16" value="" style="fontColor=#0066CC;verticalAlign=top;verticalLabelPosition=bottom;labelPosition=center;align=center;html=1;outlineConnect=0;fillColor=#CCCCCC;strokeColor=#6881B3;gradientColor=none;gradientDirection=north;strokeWidth=2;shape=mxgraph.networks.pc;" parent="1" vertex="1">
          <mxGeometry x="575" y="1040" width="100" height="70" as="geometry" />
        </mxCell>
        <mxCell id="12" value="" style="image;aspect=fixed;html=1;points=[];align=center;fontSize=12;image=img/lib/azure2/networking/Public_IP_Addresses.svg;labelBackgroundColor=#F1FAEE;fillColor=#A8DADC;strokeColor=#457B9D;fontColor=#1D3557;" parent="1" vertex="1">
          <mxGeometry x="592.5" y="790" width="65" height="52" as="geometry" />
        </mxCell>
      </root>
    </mxGraphModel>
  </diagram>
  <diagram name="Copy of Page-1" id="ntlEz1eid1sMpkzOope7">
    <mxGraphModel dx="1306" dy="1691" grid="1" gridSize="10" guides="1" tooltips="1" connect="1" arrows="1" fold="1" page="1" pageScale="1" pageWidth="1169" pageHeight="827" background="#F1FAEE" math="0" shadow="0">
      <root>
        <mxCell id="1Koa-mvRLTg0POrjHIGq-0" />
        <mxCell id="1Koa-mvRLTg0POrjHIGq-1" parent="1Koa-mvRLTg0POrjHIGq-0" />
        <mxCell id="1Koa-mvRLTg0POrjHIGq-2" value="" style="rounded=0;whiteSpace=wrap;html=1;labelBackgroundColor=#F1FAEE;dashed=1;dashPattern=8 8;glass=0;gradientDirection=radial;fillColor=#A8DADC;strokeColor=#457B9D;fontColor=#1D3557;" vertex="1" parent="1Koa-mvRLTg0POrjHIGq-1">
          <mxGeometry x="130" y="-70" width="940" height="1020" as="geometry" />
        </mxCell>
        <mxCell id="1Koa-mvRLTg0POrjHIGq-3" style="edgeStyle=orthogonalEdgeStyle;rounded=0;orthogonalLoop=1;jettySize=auto;html=1;entryX=0;entryY=0.5;entryDx=0;entryDy=0;labelBackgroundColor=#F1FAEE;strokeColor=#457B9D;fontColor=#1D3557;" edge="1" parent="1Koa-mvRLTg0POrjHIGq-1" source="1Koa-mvRLTg0POrjHIGq-5" target="1Koa-mvRLTg0POrjHIGq-12">
          <mxGeometry relative="1" as="geometry">
            <Array as="points">
              <mxPoint x="299" y="150" />
            </Array>
          </mxGeometry>
        </mxCell>
        <mxCell id="1Koa-mvRLTg0POrjHIGq-4" style="edgeStyle=orthogonalEdgeStyle;rounded=0;orthogonalLoop=1;jettySize=auto;html=1;labelBackgroundColor=#F1FAEE;strokeColor=#457B9D;fontColor=#1D3557;" edge="1" parent="1Koa-mvRLTg0POrjHIGq-1" source="1Koa-mvRLTg0POrjHIGq-5" target="1Koa-mvRLTg0POrjHIGq-14">
          <mxGeometry relative="1" as="geometry">
            <Array as="points">
              <mxPoint x="430" y="460" />
              <mxPoint x="430" y="460" />
            </Array>
          </mxGeometry>
        </mxCell>
        <mxCell id="1Koa-mvRLTg0POrjHIGq-5" value="" style="whiteSpace=wrap;html=1;fillColor=#A8DADC;fontColor=#1D3557;strokeColor=#457B9D;" vertex="1" parent="1Koa-mvRLTg0POrjHIGq-1">
          <mxGeometry x="204" y="330" width="190" height="260" as="geometry" />
        </mxCell>
        <mxCell id="1Koa-mvRLTg0POrjHIGq-6" value="" style="image;aspect=fixed;html=1;points=[];align=center;fontSize=12;image=img/lib/azure2/networking/Public_IP_Addresses.svg;labelBackgroundColor=#F1FAEE;fillColor=#A8DADC;strokeColor=#457B9D;fontColor=#1D3557;" vertex="1" parent="1Koa-mvRLTg0POrjHIGq-1">
          <mxGeometry x="200" y="414.92" width="65" height="52" as="geometry" />
        </mxCell>
        <mxCell id="1Koa-mvRLTg0POrjHIGq-7" value="" style="image;aspect=fixed;html=1;points=[];align=center;fontSize=12;image=img/lib/azure2/networking/Web_Application_Firewall_Policies_WAF.svg;labelBackgroundColor=#F1FAEE;fillColor=#A8DADC;strokeColor=#457B9D;fontColor=#1D3557;" vertex="1" parent="1Koa-mvRLTg0POrjHIGq-1">
          <mxGeometry x="290" y="395.92" width="68" height="68" as="geometry" />
        </mxCell>
        <mxCell id="1Koa-mvRLTg0POrjHIGq-8" value="Virtual Network&amp;nbsp;&lt;br&gt;10.0.0.0/16" style="aspect=fixed;html=1;perimeter=none;align=center;shadow=0;dashed=1;image;fontSize=12;image=img/lib/mscae/Virtual_Network.svg;labelBackgroundColor=none;fillColor=#A8DADC;strokeColor=#457B9D;fontColor=#1D3557;" vertex="1" parent="1Koa-mvRLTg0POrjHIGq-1">
          <mxGeometry x="959.9999999999995" y="-50" width="50" height="28.499999999999996" as="geometry" />
        </mxCell>
        <mxCell id="1Koa-mvRLTg0POrjHIGq-9" value="" style="image;aspect=fixed;html=1;points=[];align=center;fontSize=12;image=img/lib/azure2/networking/Application_Gateways.svg;labelBackgroundColor=#F1FAEE;fillColor=#A8DADC;strokeColor=#457B9D;fontColor=#1D3557;" vertex="1" parent="1Koa-mvRLTg0POrjHIGq-1">
          <mxGeometry x="217" y="405.92" width="91" height="91" as="geometry" />
        </mxCell>
        <mxCell id="1Koa-mvRLTg0POrjHIGq-10" style="edgeStyle=orthogonalEdgeStyle;rounded=0;orthogonalLoop=1;jettySize=auto;html=1;entryX=0.002;entryY=0.301;entryDx=0;entryDy=0;entryPerimeter=0;labelBackgroundColor=#F1FAEE;strokeColor=#457B9D;fontColor=#1D3557;" edge="1" parent="1Koa-mvRLTg0POrjHIGq-1" source="1Koa-mvRLTg0POrjHIGq-11" target="1Koa-mvRLTg0POrjHIGq-9">
          <mxGeometry relative="1" as="geometry" />
        </mxCell>
        <mxCell id="1Koa-mvRLTg0POrjHIGq-11" value="" style="image;aspect=fixed;html=1;points=[];align=center;fontSize=12;image=img/lib/azure2/general/Browser.svg;labelBackgroundColor=#F1FAEE;fillColor=#A8DADC;strokeColor=#457B9D;fontColor=#1D3557;" vertex="1" parent="1Koa-mvRLTg0POrjHIGq-1">
          <mxGeometry x="30" y="405.92" width="70" height="56" as="geometry" />
        </mxCell>
        <mxCell id="1Koa-mvRLTg0POrjHIGq-12" value="" style="whiteSpace=wrap;html=1;fillColor=#A8DADC;fontColor=#1D3557;strokeColor=#457B9D;" vertex="1" parent="1Koa-mvRLTg0POrjHIGq-1">
          <mxGeometry x="530" y="20" width="190" height="260" as="geometry" />
        </mxCell>
        <mxCell id="1Koa-mvRLTg0POrjHIGq-13" style="edgeStyle=orthogonalEdgeStyle;rounded=0;orthogonalLoop=1;jettySize=auto;html=1;exitX=1;exitY=0.5;exitDx=0;exitDy=0;labelBackgroundColor=#F1FAEE;strokeColor=#457B9D;fontColor=#1D3557;" edge="1" parent="1Koa-mvRLTg0POrjHIGq-1" source="1Koa-mvRLTg0POrjHIGq-14" target="1Koa-mvRLTg0POrjHIGq-22">
          <mxGeometry relative="1" as="geometry" />
        </mxCell>
        <mxCell id="1Koa-mvRLTg0POrjHIGq-14" value="" style="whiteSpace=wrap;html=1;fillColor=#A8DADC;fontColor=#1D3557;strokeColor=#457B9D;" vertex="1" parent="1Koa-mvRLTg0POrjHIGq-1">
          <mxGeometry x="530" y="330" width="190" height="260" as="geometry" />
        </mxCell>
        <mxCell id="1Koa-mvRLTg0POrjHIGq-15" value="APIM" style="image;aspect=fixed;html=1;points=[];align=center;fontSize=12;image=img/lib/azure2/app_services/API_Management_Services.svg;labelBackgroundColor=#F1FAEE;fillColor=#A8DADC;strokeColor=#457B9D;fontColor=#1D3557;" vertex="1" parent="1Koa-mvRLTg0POrjHIGq-1">
          <mxGeometry x="585.0000000000001" y="423.08" width="80" height="73.84" as="geometry" />
        </mxCell>
        <mxCell id="1Koa-mvRLTg0POrjHIGq-16" value="" style="image;aspect=fixed;html=1;points=[];align=center;fontSize=12;image=img/lib/azure2/networking/Network_Security_Groups.svg;labelBackgroundColor=#F1FAEE;fillColor=#A8DADC;strokeColor=#457B9D;fontColor=#1D3557;" vertex="1" parent="1Koa-mvRLTg0POrjHIGq-1">
          <mxGeometry x="700" y="250" width="36" height="43.71" as="geometry" />
        </mxCell>
        <mxCell id="1Koa-mvRLTg0POrjHIGq-17" value="" style="image;aspect=fixed;html=1;points=[];align=center;fontSize=12;image=img/lib/azure2/networking/Network_Security_Groups.svg;labelBackgroundColor=#F1FAEE;fillColor=#A8DADC;strokeColor=#457B9D;fontColor=#1D3557;" vertex="1" parent="1Koa-mvRLTg0POrjHIGq-1">
          <mxGeometry x="700" y="570" width="36" height="43.71" as="geometry" />
        </mxCell>
        <mxCell id="1Koa-mvRLTg0POrjHIGq-18" value="" style="image;aspect=fixed;html=1;points=[];align=center;fontSize=12;image=img/lib/azure2/networking/Network_Security_Groups.svg;labelBackgroundColor=#F1FAEE;fillColor=#A8DADC;strokeColor=#457B9D;fontColor=#1D3557;" vertex="1" parent="1Koa-mvRLTg0POrjHIGq-1">
          <mxGeometry x="358" y="414" width="36" height="43.71" as="geometry" />
        </mxCell>
        <mxCell id="1Koa-mvRLTg0POrjHIGq-19" value="subnet-appgw&lt;br&gt;10.0.0.0/24" style="text;html=1;strokeColor=none;fillColor=none;align=center;verticalAlign=middle;whiteSpace=wrap;rounded=0;fontColor=#1D3557;" vertex="1" parent="1Koa-mvRLTg0POrjHIGq-1">
          <mxGeometry x="190" y="293.71000000000004" width="110" height="30" as="geometry" />
        </mxCell>
        <mxCell id="1Koa-mvRLTg0POrjHIGq-20" value="subnet-apim&lt;br&gt;10.0.1.0/24" style="text;html=1;strokeColor=none;fillColor=none;align=center;verticalAlign=middle;whiteSpace=wrap;rounded=0;fontColor=#1D3557;" vertex="1" parent="1Koa-mvRLTg0POrjHIGq-1">
          <mxGeometry x="530" y="300" width="110" height="30" as="geometry" />
        </mxCell>
        <mxCell id="1Koa-mvRLTg0POrjHIGq-21" value="subnet-appgw-wl&lt;br&gt;10.0.2.0/24" style="text;html=1;strokeColor=none;fillColor=none;align=center;verticalAlign=middle;whiteSpace=wrap;rounded=0;fontColor=#1D3557;" vertex="1" parent="1Koa-mvRLTg0POrjHIGq-1">
          <mxGeometry x="530" y="-10" width="150" height="30" as="geometry" />
        </mxCell>
        <mxCell id="1Koa-mvRLTg0POrjHIGq-22" value="" style="whiteSpace=wrap;html=1;fillColor=#A8DADC;fontColor=#1D3557;strokeColor=#457B9D;" vertex="1" parent="1Koa-mvRLTg0POrjHIGq-1">
          <mxGeometry x="850" y="330" width="190" height="260" as="geometry" />
        </mxCell>
        <mxCell id="1Koa-mvRLTg0POrjHIGq-23" value="subnet-apim-wl&lt;br&gt;10.0.3.0/24" style="text;html=1;strokeColor=none;fillColor=none;align=center;verticalAlign=middle;whiteSpace=wrap;rounded=0;fontColor=#1D3557;" vertex="1" parent="1Koa-mvRLTg0POrjHIGq-1">
          <mxGeometry x="850" y="300" width="150" height="30" as="geometry" />
        </mxCell>
        <mxCell id="1Koa-mvRLTg0POrjHIGq-24" value="" style="image;aspect=fixed;html=1;points=[];align=center;fontSize=12;image=img/lib/azure2/networking/Network_Security_Groups.svg;labelBackgroundColor=#F1FAEE;fillColor=#A8DADC;strokeColor=#457B9D;fontColor=#1D3557;" vertex="1" parent="1Koa-mvRLTg0POrjHIGq-1">
          <mxGeometry x="1020" y="570" width="36" height="43.71" as="geometry" />
        </mxCell>
        <mxCell id="1Koa-mvRLTg0POrjHIGq-25" value="" style="whiteSpace=wrap;html=1;fillColor=#A8DADC;fontColor=#1D3557;strokeColor=#457B9D;" vertex="1" parent="1Koa-mvRLTg0POrjHIGq-1">
          <mxGeometry x="530" y="640" width="190" height="260" as="geometry" />
        </mxCell>
        <mxCell id="1Koa-mvRLTg0POrjHIGq-26" value="subnet-jumphost&lt;br&gt;10.0.4.0/24" style="text;html=1;strokeColor=none;fillColor=none;align=center;verticalAlign=middle;whiteSpace=wrap;rounded=0;fontColor=#1D3557;" vertex="1" parent="1Koa-mvRLTg0POrjHIGq-1">
          <mxGeometry x="530" y="610" width="150" height="30" as="geometry" />
        </mxCell>
        <mxCell id="1Koa-mvRLTg0POrjHIGq-27" value="" style="image;aspect=fixed;html=1;points=[];align=center;fontSize=12;image=img/lib/azure2/networking/Network_Security_Groups.svg;labelBackgroundColor=#F1FAEE;fillColor=#A8DADC;strokeColor=#457B9D;fontColor=#1D3557;" vertex="1" parent="1Koa-mvRLTg0POrjHIGq-1">
          <mxGeometry x="700" y="880" width="36" height="43.71" as="geometry" />
        </mxCell>
        <mxCell id="1Koa-mvRLTg0POrjHIGq-28" value="" style="aspect=fixed;html=1;points=[];align=center;image;fontSize=12;image=img/lib/azure2/compute/Virtual_Machine.svg;strokeColor=#457B9D;fontColor=#1D3557;fillColor=#A8DADC;" vertex="1" parent="1Koa-mvRLTg0POrjHIGq-1">
          <mxGeometry x="588.5" y="750" width="69" height="64" as="geometry" />
        </mxCell>
        <mxCell id="1Koa-mvRLTg0POrjHIGq-29" value="" style="aspect=fixed;html=1;points=[];align=center;image;fontSize=12;image=img/lib/azure2/compute/Virtual_Machine.svg;strokeColor=#457B9D;fontColor=#1D3557;fillColor=#A8DADC;" vertex="1" parent="1Koa-mvRLTg0POrjHIGq-1">
          <mxGeometry x="910.5" y="428" width="69" height="64" as="geometry" />
        </mxCell>
        <mxCell id="1Koa-mvRLTg0POrjHIGq-30" value="" style="aspect=fixed;html=1;points=[];align=center;image;fontSize=12;image=img/lib/azure2/compute/Virtual_Machine.svg;strokeColor=#457B9D;fontColor=#1D3557;fillColor=#A8DADC;" vertex="1" parent="1Koa-mvRLTg0POrjHIGq-1">
          <mxGeometry x="584" y="118" width="69" height="64" as="geometry" />
        </mxCell>
        <mxCell id="1Koa-mvRLTg0POrjHIGq-31" value="ssh" style="edgeStyle=orthogonalEdgeStyle;rounded=0;orthogonalLoop=1;jettySize=auto;html=1;strokeColor=#457B9D;fontColor=#1D3557;fillColor=#A8DADC;labelBackgroundColor=#FFFFFF;" edge="1" parent="1Koa-mvRLTg0POrjHIGq-1" source="1Koa-mvRLTg0POrjHIGq-32" target="1Koa-mvRLTg0POrjHIGq-33">
          <mxGeometry relative="1" as="geometry" />
        </mxCell>
        <mxCell id="1Koa-mvRLTg0POrjHIGq-32" value="" style="fontColor=#0066CC;verticalAlign=top;verticalLabelPosition=bottom;labelPosition=center;align=center;html=1;outlineConnect=0;fillColor=#CCCCCC;strokeColor=#6881B3;gradientColor=none;gradientDirection=north;strokeWidth=2;shape=mxgraph.networks.pc;" vertex="1" parent="1Koa-mvRLTg0POrjHIGq-1">
          <mxGeometry x="575" y="1040" width="100" height="70" as="geometry" />
        </mxCell>
        <mxCell id="1Koa-mvRLTg0POrjHIGq-33" value="" style="image;aspect=fixed;html=1;points=[];align=center;fontSize=12;image=img/lib/azure2/networking/Public_IP_Addresses.svg;labelBackgroundColor=#F1FAEE;fillColor=#A8DADC;strokeColor=#457B9D;fontColor=#1D3557;" vertex="1" parent="1Koa-mvRLTg0POrjHIGq-1">
          <mxGeometry x="592.5" y="790" width="65" height="52" as="geometry" />
        </mxCell>
      </root>
    </mxGraphModel>
  </diagram>
</mxfile>
